<svg width="280" height="200" viewBox="0 0 280 200" fill="none" xmlns="http://www.w3.org/2000/svg">
<g filter="url(#filter0_d_5530_2736)">
<rect x="17" y="15" width="240" height="160" rx="4" fill="white"/>
<rect x="17.5" y="15.5" width="239" height="159" rx="3.5" stroke="#213F7D" stroke-opacity="0.06"/>
</g>
<path d="M55.232 123.16V139H52.016V127.192C52.016 126.936 52.024 126.736 52.04 126.592C51.464 127.12 50.84 127.568 50.168 127.936C49.512 128.304 48.848 128.552 48.176 128.68L47.744 125.896C48.48 125.816 49.36 125.488 50.384 124.912C51.424 124.32 52.144 123.736 52.544 123.16H55.232ZM64.8976 139.24C62.8016 139.24 61.2176 138.552 60.1456 137.176C59.0896 135.8 58.5616 133.768 58.5616 131.08C58.5616 128.392 59.0896 126.36 60.1456 124.984C61.2176 123.608 62.8016 122.92 64.8976 122.92C66.9936 122.92 68.5696 123.608 69.6256 124.984C70.6976 126.36 71.2336 128.392 71.2336 131.08C71.2336 133.768 70.6976 135.8 69.6256 137.176C68.5696 138.552 66.9936 139.24 64.8976 139.24ZM64.8976 136.576C65.9216 136.576 66.6816 136.128 67.1776 135.232C67.6736 134.336 67.9216 132.952 67.9216 131.08C67.9216 129.208 67.6736 127.824 67.1776 126.928C66.6816 126.032 65.9216 125.584 64.8976 125.584C63.8736 125.584 63.1136 126.032 62.6176 126.928C62.1216 127.824 61.8736 129.208 61.8736 131.08C61.8736 132.952 62.1216 134.336 62.6176 135.232C63.1136 136.128 63.8736 136.576 64.8976 136.576ZM74.0834 136.744C76.0194 135.448 77.5554 134.312 78.6914 133.336C79.8274 132.36 80.6514 131.456 81.1634 130.624C81.6754 129.792 81.9314 128.968 81.9314 128.152C81.9314 127.4 81.6994 126.792 81.2354 126.328C80.7874 125.864 80.1634 125.632 79.3634 125.632C78.4834 125.632 77.7874 125.936 77.2754 126.544C76.7634 127.152 76.4834 128.016 76.4354 129.136L73.5794 128.056C73.6914 126.456 74.2834 125.2 75.3554 124.288C76.4274 123.376 77.8274 122.92 79.5554 122.92C80.7874 122.92 81.8274 123.152 82.6754 123.616C83.5394 124.08 84.1874 124.696 84.6194 125.464C85.0514 126.216 85.2674 127.048 85.2674 127.96C85.2674 129.448 84.7074 130.856 83.5874 132.184C82.4674 133.496 80.6834 134.904 78.2354 136.408V136.432C79.1634 136.368 80.1314 136.336 81.1394 136.336H85.5074V139H74.0834V136.744ZM90.0391 135.328C90.7751 135.328 91.3431 135.592 91.7431 136.12C92.1431 136.632 92.3431 137.304 92.3431 138.136C92.3431 139.112 92.0791 140 91.5511 140.8C91.0391 141.616 90.2791 142.248 89.2711 142.696L87.7591 141.544C88.4631 141.272 89.0551 140.92 89.5351 140.488C90.0151 140.056 90.3351 139.568 90.4951 139.024L90.3991 138.952C90.2391 139.112 90.0071 139.192 89.7031 139.192C89.2391 139.192 88.8311 139.032 88.4791 138.712C88.1271 138.392 87.9511 137.936 87.9511 137.344C87.9511 136.72 88.1431 136.232 88.5271 135.88C88.9111 135.512 89.4151 135.328 90.0391 135.328ZM107.665 135.28H105.097V139H102.097V135.28H94.2005V133.528L101.137 123.16H105.097V132.88H107.665V135.28ZM97.3925 132.88H102.097V128.032L102.169 125.44H102.121C101.769 126.256 101.289 127.128 100.681 128.056L97.3925 132.88ZM116.372 128.8C117.908 128.8 119.116 129.256 119.996 130.168C120.892 131.064 121.34 132.248 121.34 133.72C121.34 135.496 120.796 136.864 119.708 137.824C118.636 138.768 117.22 139.24 115.46 139.24C114.036 139.24 112.836 138.976 111.86 138.448C110.9 137.904 110.116 137.056 109.508 135.904L112.484 134.248C112.692 135.032 113.012 135.624 113.444 136.024C113.892 136.408 114.556 136.6 115.436 136.6C116.316 136.6 117.004 136.368 117.5 135.904C118.012 135.44 118.268 134.784 118.268 133.936C118.252 133.072 118.012 132.416 117.548 131.968C117.084 131.504 116.404 131.272 115.508 131.272C114.18 131.272 113.212 131.656 112.604 132.424L110.012 132.136L110.996 123.16H120.524V125.824H113.492L113.036 129.544L112.964 130H112.988C113.34 129.616 113.804 129.32 114.38 129.112C114.972 128.904 115.636 128.8 116.372 128.8ZM129.573 122.92C131.269 122.92 132.589 123.32 133.533 124.12C134.493 124.92 134.973 125.96 134.973 127.24C134.973 128.024 134.813 128.704 134.493 129.28C134.173 129.84 133.781 130.264 133.317 130.552C132.853 130.84 132.413 130.984 131.997 130.984V131.056C132.525 131.056 133.037 131.192 133.533 131.464C134.045 131.736 134.461 132.152 134.781 132.712C135.117 133.256 135.285 133.92 135.285 134.704C135.285 135.584 135.029 136.368 134.517 137.056C134.021 137.744 133.325 138.28 132.429 138.664C131.533 139.048 130.509 139.24 129.357 139.24C127.805 139.24 126.533 138.928 125.541 138.304C124.565 137.664 123.853 136.68 123.405 135.352L126.405 134.008C126.581 134.888 126.901 135.536 127.365 135.952C127.845 136.368 128.517 136.576 129.381 136.576C130.197 136.576 130.845 136.376 131.325 135.976C131.805 135.56 132.045 135.008 132.045 134.32C132.045 133.584 131.813 133.056 131.349 132.736C130.901 132.4 130.189 132.232 129.213 132.232H128.421V129.928H129.093C130.821 129.928 131.685 129.2 131.685 127.744C131.685 127.04 131.485 126.504 131.085 126.136C130.701 125.768 130.149 125.584 129.429 125.584C128.693 125.584 128.101 125.776 127.653 126.16C127.205 126.544 126.925 127.104 126.813 127.84L123.861 126.76C124.165 125.496 124.821 124.544 125.829 123.904C126.853 123.248 128.101 122.92 129.573 122.92Z" fill="#213F7D"/>
<path d="M55.806 98.458C55.806 99.6713 55.484 100.591 54.84 101.216C54.196 101.832 53.258 102.14 52.026 102.14C50.794 102.14 49.856 101.832 49.212 101.216C48.568 100.591 48.246 99.6713 48.246 98.458V92.76H49.758V98.276C49.758 99.1533 49.94 99.802 50.304 100.222C50.6773 100.633 51.2513 100.838 52.026 100.838C52.8007 100.838 53.37 100.633 53.734 100.222C54.1073 99.802 54.294 99.1533 54.294 98.276V92.76H55.806V98.458ZM61.5708 92.62C62.4202 92.62 63.1435 92.774 63.7408 93.082C64.3475 93.39 64.8562 93.8613 65.2668 94.496L64.1328 95.518C63.8715 94.958 63.5448 94.552 63.1528 94.3C62.7608 94.048 62.2382 93.922 61.5848 93.922C60.9408 93.922 60.4415 94.0527 60.0868 94.314C59.7322 94.566 59.5548 94.8927 59.5548 95.294C59.5548 95.6673 59.7275 95.966 60.0728 96.19C60.4182 96.4047 61.0342 96.5913 61.9208 96.75C62.7515 96.8993 63.4095 97.0907 63.8948 97.324C64.3895 97.548 64.7488 97.8327 64.9728 98.178C65.1968 98.514 65.3088 98.934 65.3088 99.438C65.3088 99.9793 65.1548 100.455 64.8468 100.866C64.5388 101.277 64.1048 101.594 63.5448 101.818C62.9942 102.033 62.3548 102.14 61.6268 102.14C59.7508 102.14 58.4255 101.515 57.6508 100.264L58.7008 99.214C58.9995 99.774 59.3822 100.185 59.8488 100.446C60.3248 100.707 60.9128 100.838 61.6128 100.838C62.2755 100.838 62.7935 100.726 63.1668 100.502C63.5495 100.269 63.7408 99.942 63.7408 99.522C63.7408 99.186 63.5682 98.9153 63.2228 98.71C62.8868 98.5047 62.2942 98.3227 61.4448 98.164C60.5955 98.0053 59.9188 97.8093 59.4148 97.576C58.9108 97.3427 58.5422 97.0533 58.3088 96.708C58.0848 96.3627 57.9728 95.9427 57.9728 95.448C57.9728 94.9253 58.1175 94.4493 58.4068 94.02C58.6962 93.5907 59.1115 93.25 59.6528 92.998C60.2035 92.746 60.8428 92.62 61.5708 92.62ZM74.2913 100.712V102H67.4033V92.76H74.0953V94.048H68.9013V96.708H72.9613V97.968H68.9013V100.712H74.2913ZM79.7756 98.304H77.7876V102H76.3036V92.76H80.0696C81.0683 92.76 81.857 93.0073 82.4356 93.502C83.0143 93.9873 83.3036 94.664 83.3036 95.532C83.3036 96.1947 83.131 96.75 82.7856 97.198C82.4496 97.6367 81.969 97.9493 81.3436 98.136L83.8496 102H82.1276L79.7756 98.304ZM77.7876 97.058H79.9436C80.5503 97.058 81.003 96.9367 81.3016 96.694C81.6003 96.442 81.7496 96.0593 81.7496 95.546C81.7496 95.0327 81.6003 94.6547 81.3016 94.412C81.003 94.16 80.5503 94.034 79.9436 94.034H77.7876V97.058ZM88.8599 92.62C89.7092 92.62 90.4326 92.774 91.0299 93.082C91.6366 93.39 92.1452 93.8613 92.5559 94.496L91.4219 95.518C91.1606 94.958 90.8339 94.552 90.4419 94.3C90.0499 94.048 89.5272 93.922 88.8739 93.922C88.2299 93.922 87.7306 94.0527 87.3759 94.314C87.0212 94.566 86.8439 94.8927 86.8439 95.294C86.8439 95.6673 87.0166 95.966 87.3619 96.19C87.7072 96.4047 88.3232 96.5913 89.2099 96.75C90.0406 96.8993 90.6986 97.0907 91.1839 97.324C91.6786 97.548 92.0379 97.8327 92.2619 98.178C92.4859 98.514 92.5979 98.934 92.5979 99.438C92.5979 99.9793 92.4439 100.455 92.1359 100.866C91.8279 101.277 91.3939 101.594 90.8339 101.818C90.2832 102.033 89.6439 102.14 88.9159 102.14C87.0399 102.14 85.7146 101.515 84.9399 100.264L85.9899 99.214C86.2886 99.774 86.6712 100.185 87.1379 100.446C87.6139 100.707 88.2019 100.838 88.9019 100.838C89.5646 100.838 90.0826 100.726 90.4559 100.502C90.8386 100.269 91.0299 99.942 91.0299 99.522C91.0299 99.186 90.8572 98.9153 90.5119 98.71C90.1759 98.5047 89.5832 98.3227 88.7339 98.164C87.8846 98.0053 87.2079 97.8093 86.7039 97.576C86.1999 97.3427 85.8312 97.0533 85.5979 96.708C85.3739 96.3627 85.2619 95.9427 85.2619 95.448C85.2619 94.9253 85.4066 94.4493 85.6959 94.02C85.9852 93.5907 86.4006 93.25 86.9419 92.998C87.4926 92.746 88.1319 92.62 88.8599 92.62ZM102.445 102H100.667L97.9506 92.76H99.5746L101.591 100.81L103.621 92.76H105.161L107.205 100.824L109.235 92.76H110.775L108.073 102H106.309L104.839 96.456L104.377 94.328H104.363L103.901 96.456L102.445 102ZM114.032 102H112.534V92.76H114.032V102ZM123.646 94.048H120.482V102H118.984V94.048H115.82V92.76H123.646V94.048ZM133.014 92.76V102H131.502V97.968H126.938V102H125.44V92.76H126.938V96.68H131.502V92.76H133.014ZM143.452 92.62C144.301 92.62 145.024 92.774 145.622 93.082C146.228 93.39 146.737 93.8613 147.148 94.496L146.014 95.518C145.752 94.958 145.426 94.552 145.034 94.3C144.642 94.048 144.119 93.922 143.466 93.922C142.822 93.922 142.322 94.0527 141.968 94.314C141.613 94.566 141.436 94.8927 141.436 95.294C141.436 95.6673 141.608 95.966 141.954 96.19C142.299 96.4047 142.915 96.5913 143.802 96.75C144.632 96.8993 145.29 97.0907 145.776 97.324C146.27 97.548 146.63 97.8327 146.854 98.178C147.078 98.514 147.19 98.934 147.19 99.438C147.19 99.9793 147.036 100.455 146.728 100.866C146.42 101.277 145.986 101.594 145.426 101.818C144.875 102.033 144.236 102.14 143.508 102.14C141.632 102.14 140.306 101.515 139.532 100.264L140.582 99.214C140.88 99.774 141.263 100.185 141.73 100.446C142.206 100.707 142.794 100.838 143.494 100.838C144.156 100.838 144.674 100.726 145.048 100.502C145.43 100.269 145.622 99.942 145.622 99.522C145.622 99.186 145.449 98.9153 145.104 98.71C144.768 98.5047 144.175 98.3227 143.326 98.164C142.476 98.0053 141.8 97.8093 141.296 97.576C140.792 97.3427 140.423 97.0533 140.19 96.708C139.966 96.3627 139.854 95.9427 139.854 95.448C139.854 94.9253 139.998 94.4493 140.288 94.02C140.577 93.5907 140.992 93.25 141.534 92.998C142.084 92.746 142.724 92.62 143.452 92.62ZM154.41 99.578H150.518L149.636 102H148.096L151.582 92.76H153.374L156.86 102H155.278L154.41 99.578ZM153.962 98.36L152.898 95.392L152.478 94.062H152.436L152.044 95.364L150.952 98.36H153.962ZM161.713 102H159.963L156.533 92.76H158.129L160.285 98.906L160.845 100.74L161.405 98.92L163.561 92.76H165.143L161.713 102ZM168.323 102H166.825V92.76H168.323V102ZM178.637 102H176.859L173.289 96.176L172.393 94.468H172.379L172.435 96.036V102H171.063V92.76H172.827L176.383 98.57L177.293 100.292H177.307L177.251 98.724V92.76H178.637V102ZM189.114 97.226V102H188.008L187.966 100.824C187.695 101.244 187.322 101.571 186.846 101.804C186.37 102.028 185.801 102.14 185.138 102.14C184.279 102.14 183.528 101.949 182.884 101.566C182.24 101.183 181.741 100.637 181.386 99.928C181.031 99.2093 180.854 98.36 180.854 97.38C180.854 96.4093 181.036 95.5693 181.4 94.86C181.764 94.1413 182.277 93.5907 182.94 93.208C183.603 92.816 184.373 92.62 185.25 92.62C186.202 92.62 186.986 92.7973 187.602 93.152C188.218 93.5067 188.703 94.0573 189.058 94.804L187.686 95.462C187.509 94.958 187.21 94.5753 186.79 94.314C186.37 94.0527 185.866 93.922 185.278 93.922C184.401 93.922 183.705 94.2253 183.192 94.832C182.679 95.4387 182.422 96.288 182.422 97.38C182.422 98.4907 182.665 99.3493 183.15 99.956C183.645 100.553 184.363 100.852 185.306 100.852C186.043 100.852 186.641 100.67 187.098 100.306C187.555 99.942 187.784 99.4147 187.784 98.724V98.458H184.956V97.226H189.114ZM194.653 92.62C195.502 92.62 196.226 92.774 196.823 93.082C197.43 93.39 197.938 93.8613 198.349 94.496L197.215 95.518C196.954 94.958 196.627 94.552 196.235 94.3C195.843 94.048 195.32 93.922 194.667 93.922C194.023 93.922 193.524 94.0527 193.169 94.314C192.814 94.566 192.637 94.8927 192.637 95.294C192.637 95.6673 192.81 95.966 193.155 96.19C193.5 96.4047 194.116 96.5913 195.003 96.75C195.834 96.8993 196.492 97.0907 196.977 97.324C197.472 97.548 197.831 97.8327 198.055 98.178C198.279 98.514 198.391 98.934 198.391 99.438C198.391 99.9793 198.237 100.455 197.929 100.866C197.621 101.277 197.187 101.594 196.627 101.818C196.076 102.033 195.437 102.14 194.709 102.14C192.833 102.14 191.508 101.515 190.733 100.264L191.783 99.214C192.082 99.774 192.464 100.185 192.931 100.446C193.407 100.707 193.995 100.838 194.695 100.838C195.358 100.838 195.876 100.726 196.249 100.502C196.632 100.269 196.823 99.942 196.823 99.522C196.823 99.186 196.65 98.9153 196.305 98.71C195.969 98.5047 195.376 98.3227 194.527 98.164C193.678 98.0053 193.001 97.8093 192.497 97.576C191.993 97.3427 191.624 97.0533 191.391 96.708C191.167 96.3627 191.055 95.9427 191.055 95.448C191.055 94.9253 191.2 94.4493 191.489 94.02C191.778 93.5907 192.194 93.25 192.735 92.998C193.286 92.746 193.925 92.62 194.653 92.62Z" fill="#545F7D"/>
<circle opacity="0.1" cx="67" cy="55" r="20" fill="#FF3366"/>
<g clip-path="url(#clip0_5530_2736)">
<path d="M74.6002 48.25C74.6002 47.5219 74.0002 46.9343 73.1059 46.5341C72.2049 46.1309 70.9713 45.9 69.6248 45.9C68.2786 45.9 67.0451 46.1309 66.1443 46.5341C65.25 46.9343 64.65 47.5219 64.65 48.25C64.65 48.9781 65.25 49.5657 66.1443 49.9659C67.0451 50.3691 68.2786 50.6 69.6248 50.6C70.9713 50.6 72.2049 50.3691 73.1059 49.9659C74.0002 49.5657 74.6002 48.9781 74.6002 48.25ZM65.6002 48.25C65.6002 48.108 65.6887 47.9472 65.8861 47.7802C66.0817 47.6149 66.3705 47.4554 66.7363 47.3165C67.467 47.0389 68.4858 46.8502 69.6248 46.8502C70.7637 46.8502 71.7827 47.0389 72.5136 47.3165C72.8794 47.4554 73.1684 47.6149 73.364 47.7803C73.5615 47.9473 73.65 48.108 73.65 48.25C73.65 48.392 73.5615 48.5527 73.364 48.7197C73.1684 48.8851 72.8794 49.0446 72.5136 49.1835C71.7827 49.4611 70.7637 49.6498 69.6248 49.6498C68.4858 49.6498 67.467 49.4611 66.7363 49.1835C66.3705 49.0446 66.0817 48.8851 65.8861 48.7197C65.6887 48.5527 65.6002 48.392 65.6002 48.25Z" fill="#FF3366" stroke="#FF3366" stroke-width="0.2"/>
<path d="M74.6002 48.25V48.15H74.5002H73.75H73.65V48.25V50.5C73.65 50.642 73.5615 50.8027 73.364 50.9697C73.1684 51.1351 72.8794 51.2946 72.5136 51.4335C71.7827 51.7111 70.7637 51.8998 69.6248 51.8998C68.4858 51.8998 67.467 51.7111 66.7363 51.4335C66.3705 51.2946 66.0817 51.1351 65.8861 50.9697C65.6887 50.8027 65.6002 50.642 65.6002 50.5V48.25V48.15H65.5002H64.75H64.65V48.25V50.5C64.65 51.2281 65.25 51.8157 66.1443 52.2159C67.0451 52.6191 68.2786 52.85 69.6248 52.85C70.9713 52.85 72.2049 52.6191 73.1059 52.2159C74.0002 51.8157 74.6002 51.2281 74.6002 50.5V48.25Z" fill="#FF3366" stroke="#FF3366" stroke-width="0.2"/>
<path d="M64.65 52.757V52.8383L64.7296 52.8549L64.7296 52.8549L64.738 52.8567L64.7465 52.857C65.0034 52.866 65.2532 52.8848 65.4932 52.9119L65.6205 52.9263L65.6036 52.7993C65.6013 52.7824 65.6002 52.7665 65.6002 52.75V50.5V50.4H65.5002H64.75H64.65V50.5V52.75V52.757ZM68.5015 54.9454L68.5045 55.0446C68.8651 55.0808 69.2404 55.0999 69.6248 55.0999C70.9713 55.0999 72.2049 54.8691 73.1059 54.4659C74.0002 54.0656 74.6002 53.478 74.6002 52.7499V50.4999V50.3999H74.5002H73.75H73.65V50.4999V52.7499C73.65 52.8919 73.5615 53.0527 73.364 53.2197C73.1684 53.3851 72.8794 53.5445 72.5136 53.6835C71.7827 53.961 70.7637 54.1497 69.6248 54.1497C69.2361 54.1497 68.8616 54.1281 68.5068 54.0878L68.3795 54.0733L68.3964 54.2003C68.3987 54.2172 68.3998 54.2338 68.3998 54.2497C68.3998 54.3138 68.4054 54.5695 68.4146 54.9475L68.5015 54.9454Z" fill="#FF3366" stroke="#FF3366" stroke-width="0.2"/>
<path d="M68.4708 57.1525L68.3094 57.2763L68.5626 57.3004C68.9055 57.3331 69.2609 57.3501 69.6247 57.3501C70.9712 57.3501 72.2049 57.1192 73.1058 56.716C74.0001 56.3158 74.6002 55.7282 74.6002 55.0001V52.7501V52.6501H74.5002H73.7499H73.6499V52.7501V55.0001C73.6499 55.1421 73.5614 55.3028 73.3639 55.4698C73.1684 55.6352 72.8794 55.7947 72.5135 55.9336C71.7827 56.2112 70.7637 56.3999 69.6247 56.3999C69.257 56.3999 68.9005 56.3803 68.5631 56.3442L68.4495 56.332L68.4525 56.4462C68.4544 56.5218 68.4564 56.5983 68.4584 56.6757C68.4624 56.8316 68.4665 56.9909 68.4708 57.1525ZM65.4893 52.9113L65.6002 52.9236V52.8119V52.7501V52.6501H65.5002H64.75H64.65V52.7501V52.7571V52.8536L64.7465 52.857C65.0019 52.8661 65.2497 52.8849 65.4893 52.9113Z" fill="#FF3366" stroke="#FF3366" stroke-width="0.2"/>
<path d="M69.35 55C69.35 54.2719 68.75 53.6843 67.8557 53.2841C66.9549 52.8809 65.7214 52.65 64.3752 52.65C63.0287 52.65 61.795 52.8809 60.8941 53.2841C59.9998 53.6843 59.3998 54.2719 59.3998 55C59.3998 55.7281 59.9998 56.3157 60.8941 56.7159C61.795 57.1191 63.0287 57.35 64.3752 57.35C65.7214 57.35 66.9549 57.1191 67.8557 56.7159C68.75 56.3157 69.35 55.7281 69.35 55ZM60.35 55C60.35 54.858 60.4385 54.6973 60.636 54.5303C60.8316 54.3649 61.1206 54.2054 61.4864 54.0665C62.2173 53.7889 63.2362 53.6002 64.3752 53.6002C65.5142 53.6002 66.533 53.7889 67.2637 54.0665C67.6295 54.2054 67.9183 54.3649 68.1139 54.5303C68.3113 54.6973 68.3998 54.858 68.3998 55C68.3998 55.142 68.3113 55.3027 68.1139 55.4697C67.9183 55.6351 67.6295 55.7946 67.2637 55.9335C66.533 56.2111 65.5142 56.3998 64.3752 56.3998C63.2362 56.3998 62.2173 56.2111 61.4864 55.9335C61.1206 55.7946 60.8316 55.6351 60.636 55.4697C60.4385 55.3027 60.35 55.142 60.35 55Z" fill="#FF3366" stroke="#FF3366" stroke-width="0.2"/>
<path d="M69.35 55V54.9H69.25H68.4998H68.3998V55V57.25C68.3998 57.392 68.3113 57.5528 68.1139 57.7198C67.9183 57.8851 67.6295 58.0446 67.2637 58.1835C66.533 58.4611 65.5142 58.6498 64.3752 58.6498C63.2362 58.6498 62.2173 58.4611 61.4864 58.1835C61.1206 58.0446 60.8316 57.8851 60.636 57.7197C60.4385 57.5527 60.35 57.392 60.35 57.25V55V54.9H60.25H59.4998H59.3998V55V57.25C59.3998 57.9781 59.9998 58.5657 60.8941 58.9659C61.795 59.3691 63.0287 59.6 64.3752 59.6C65.7214 59.6 66.9549 59.3691 67.8557 58.9659C68.75 58.5657 69.35 57.9781 69.35 57.25V55Z" fill="#FF3366" stroke="#FF3366" stroke-width="0.2"/>
<path d="M69.35 57.25V57.15H69.25H68.4998H68.3998V57.25V59.5C68.3998 59.642 68.3113 59.8028 68.1139 59.9698C67.9183 60.1351 67.6295 60.2946 67.2637 60.4335C66.533 60.7111 65.5142 60.8998 64.3752 60.8998C63.2362 60.8998 62.2173 60.7111 61.4864 60.4335C61.1206 60.2946 60.8316 60.1351 60.636 59.9697C60.4385 59.8027 60.35 59.642 60.35 59.5V57.25V57.15H60.25H59.4998H59.3998V57.25V59.5C59.3998 60.2281 59.9998 60.8157 60.8941 61.2159C61.795 61.6191 63.0287 61.85 64.3752 61.85C65.7214 61.85 66.9549 61.6191 67.8557 61.2159C68.75 60.8157 69.35 60.2281 69.35 59.5V57.25Z" fill="#FF3366" stroke="#FF3366" stroke-width="0.2"/>
<path d="M69.35 59.5V59.4H69.25H68.4998H68.3998V59.5V61.75C68.3998 61.892 68.3113 62.0528 68.1139 62.2198C67.9183 62.3851 67.6295 62.5446 67.2637 62.6835C66.533 62.9611 65.5142 63.1498 64.3752 63.1498C63.2362 63.1498 62.2173 62.9611 61.4864 62.6835C61.1206 62.5446 60.8316 62.3851 60.636 62.2197C60.4385 62.0527 60.35 61.892 60.35 61.75V59.5V59.4H60.25H59.4998H59.3998V59.5V61.75C59.3998 62.4781 59.9998 63.0657 60.8941 63.4659C61.795 63.8691 63.0287 64.1 64.3752 64.1C65.7214 64.1 66.9549 63.8691 67.8557 63.4659C68.75 63.0657 69.35 62.4781 69.35 61.75V59.5Z" fill="#FF3366" stroke="#FF3366" stroke-width="0.2"/>
<path d="M68.5395 59.4945L68.5626 59.5506L68.6231 59.556C68.9475 59.5851 69.2823 59.6 69.6248 59.6C70.9713 59.6 72.205 59.3692 73.1059 58.966C74.0002 58.5657 74.6003 57.9781 74.6003 57.25V55V54.9H74.5003H73.7501H73.6501V55V57.25C73.6501 57.392 73.5615 57.5528 73.364 57.7198C73.1685 57.8852 72.8795 58.0446 72.5136 58.1835C71.7828 58.4611 70.7638 58.6498 69.6248 58.6498C69.278 58.6498 68.9424 58.6324 68.6223 58.6004L68.5096 58.5891L68.5123 58.7023C68.5165 58.8717 68.5209 59.0392 68.5253 59.203C68.5276 59.2894 68.5298 59.3748 68.532 59.459L68.5325 59.4774L68.5395 59.4945L68.5395 59.4945Z" fill="#FF3366" stroke="#FF3366" stroke-width="0.2"/>
<path d="M68.5989 61.7459L68.6207 61.8065L68.6849 61.8117C68.9891 61.8365 69.3041 61.85 69.6246 61.85C70.9712 61.85 72.2048 61.6191 73.1057 61.2159C74.0001 60.8157 74.6001 60.2281 74.6001 59.5V57.25V57.15H74.5001H73.7499H73.6499V57.25V59.5C73.6499 59.642 73.5614 59.8027 73.3639 59.9697C73.1683 60.1351 72.8793 60.2946 72.5135 60.4335C71.7826 60.7111 70.7636 60.8998 69.6246 60.8998C69.2994 60.8998 68.984 60.8844 68.682 60.8559L68.5696 60.8453L68.5726 60.9582C68.5778 61.1476 68.5821 61.3097 68.5855 61.4372C68.5891 61.5703 68.5916 61.6657 68.593 61.7149L68.5935 61.7309L68.5989 61.7459L68.5989 61.7459Z" fill="#FF3366" stroke="#FF3366" stroke-width="0.2"/>
</g>
<defs>
<filter id="filter0_d_5530_2736" x="0" y="0" width="280" height="200" filterUnits="userSpaceOnUse" color-interpolation-filters="sRGB">
<feFlood flood-opacity="0" result="BackgroundImageFix"/>
<feColorMatrix in="SourceAlpha" type="matrix" values="0 0 0 0 0 0 0 0 0 0 0 0 0 0 0 0 0 0 127 0" result="hardAlpha"/>
<feOffset dx="3" dy="5"/>
<feGaussianBlur stdDeviation="10"/>
<feColorMatrix type="matrix" values="0 0 0 0 0 0 0 0 0 0 0 0 0 0 0 0 0 0 0.04 0"/>
<feBlend mode="normal" in2="BackgroundImageFix" result="effect1_dropShadow_5530_2736"/>
<feBlend mode="normal" in="SourceGraphic" in2="effect1_dropShadow_5530_2736" result="shape"/>
</filter>
<clipPath id="clip0_5530_2736">
<rect width="18" height="18" fill="white" transform="translate(58 46)"/>
</clipPath>
</defs>
</svg>
